<svg width="38" height="32" viewBox="0 0 38 32" fill="none" xmlns="http://www.w3.org/2000/svg">
<path fill-rule="evenodd" clip-rule="evenodd" d="M12.3125 -7.31495e-05C12.3716 -4.78772e-05 12.4315 -2.22472e-05 12.4922 -2.22472e-05H25.5071C25.5679 -2.22472e-05 25.6278 -4.78772e-05 25.6869 -7.31495e-05C27.018 -0.000643089 27.9378 -0.00103694 28.7621 0.295907C29.4886 0.557614 30.1435 0.9838 30.6772 1.54083C31.2832 2.17336 31.6561 3.01352 32.196 4.22971C32.2201 4.28393 32.2445 4.33889 32.2693 4.39462L35.3618 11.3528C35.3711 11.3737 35.3803 11.3943 35.3893 11.4146C35.4892 11.6394 35.5726 11.8268 35.6424 12H37C37.5523 12 38 12.4477 38 13C38 13.5523 37.5523 14 37 14H35.9996C36 14.0916 36 14.189 36 14.2938L36 27C36 29.7614 33.7614 32 31 32C28.2386 32 26 29.7614 26 27V26L12 26V27C12 29.7614 9.76142 32 7 32C4.23858 32 2 29.7614 2 27V14.3581C2 14.3385 2 14.3191 1.99999 14.3C1.99998 14.1928 1.99996 14.0934 2.00048 14H1C0.447715 14 0 13.5523 0 13C0 12.4477 0.447715 12 1 12H2.35728C2.42671 11.8278 2.50948 11.6417 2.60851 11.419C2.61817 11.3973 2.62798 11.3752 2.63795 11.3528L5.73047 4.39462C5.75484 4.33978 5.77886 4.28568 5.80255 4.2323C6.34319 3.01451 6.71643 2.17377 7.32284 1.54083C7.85668 0.983645 8.51195 0.557542 9.23823 0.295907C10.0625 -0.00103563 10.9814 -0.000642493 12.3125 -7.31495e-05ZM4.00074 14C4.00013 14.0986 4 14.2158 4 14.3581V24L34 24V14.3581C34 14.2158 33.9999 14.0986 33.9993 14H4.00074ZM33.4608 12H4.53894L7.55809 5.2069C8.2005 3.76148 8.43351 3.27254 8.767 2.92446C9.08747 2.58996 9.48055 2.33443 9.91607 2.17754C10.3696 2.01417 10.9103 1.99998 12.4922 1.99998H25.5071C27.0891 1.99998 27.6308 2.01417 28.0843 2.17754C28.5196 2.33436 28.9124 2.58981 29.233 2.92446C29.5665 3.27249 29.7991 3.76123 30.4417 5.2069L33.4608 12ZM34 26L28 26V27C28 28.6568 29.3431 30 31 30C32.6569 30 34 28.6568 34 27V26ZM10 26L4 26V27C4 28.6568 5.34315 30 7 30C8.65685 30 10 28.6568 10 27V26Z" fill="#FF6B00"/>
</svg>
