<svg width="38" height="30" viewBox="0 0 38 30" fill="none" xmlns="http://www.w3.org/2000/svg">
<path fill-rule="evenodd" clip-rule="evenodd" d="M28.0605 3.85991C25.1725 2.62212 22.0617 1.98917 18.9197 2.00014C15.7777 2.01111 12.671 2.6658 9.79173 3.92371C6.91248 5.18163 4.32149 7.01614 2.17862 9.31409C1.80197 9.71801 1.16919 9.7401 0.765271 9.36344C0.361356 8.98679 0.339258 8.35401 0.715916 7.95009C3.04512 5.45232 5.86141 3.45828 8.99103 2.09099C12.1207 0.723687 15.4975 0.0120743 18.9127 0.00015233C22.328 -0.0117697 25.7093 0.676227 28.8483 2.02164C31.9875 3.36707 34.8173 5.34146 37.1639 7.82288C37.5433 8.22415 37.5257 8.85707 37.1244 9.23654C36.7231 9.61601 36.0902 9.59833 35.7107 9.19705C33.5518 6.91409 30.9484 5.09767 28.0605 3.85991ZM24.9093 11.213C23.0259 10.4057 20.9971 9.99299 18.948 10.0001C16.8988 10.0073 14.873 10.4343 12.9953 11.2546C11.1175 12.075 9.42771 13.2714 8.03019 14.7701C7.65353 15.174 7.02075 15.1961 6.61683 14.8195C6.21292 14.4428 6.19082 13.81 6.56748 13.4061C8.15134 11.7076 10.0664 10.3517 12.1946 9.42192C14.3227 8.49216 16.6186 8.00826 18.941 8.00015C21.2633 7.99204 23.5626 8.45984 25.6972 9.37472C27.8317 10.2896 29.7567 11.6321 31.3524 13.3195C31.7319 13.7208 31.7142 14.3537 31.3129 14.7332C30.9117 15.1127 30.2787 15.095 29.8993 14.6937C28.4914 13.2049 26.7929 12.0203 24.9093 11.213ZM22.5452 18.7278C21.4151 18.2435 20.1976 17.9957 18.9682 18C17.7388 18.0043 16.5237 18.2605 15.3969 18.7528C14.2703 19.245 13.2564 19.9629 12.4179 20.8621C12.0412 21.266 11.4084 21.2881 11.0045 20.9114C10.6006 20.5348 10.5785 19.902 10.9552 19.4981C11.98 18.3991 13.2192 17.5217 14.5962 16.9201C15.9732 16.3185 17.4584 16.0053 18.9612 16C20.4639 15.9948 21.9519 16.2976 23.3331 16.8895C24.7142 17.4815 25.9598 18.3501 26.9924 19.442C27.3718 19.8433 27.3541 20.4762 26.9529 20.8557C26.5516 21.2351 25.9187 21.2175 25.5392 20.8162C24.6945 19.9229 23.6754 19.2122 22.5452 18.7278ZM16 27C16 25.3432 17.3431 24 19 24C20.6569 24 22 25.3432 22 27C22 28.6569 20.6569 30 19 30C17.3431 30 16 28.6569 16 27ZM19 26C18.4477 26 18 26.4477 18 27C18 27.5523 18.4477 28 19 28C19.5523 28 20 27.5523 20 27C20 26.4477 19.5523 26 19 26Z" fill="#FF6B00"/>
</svg>
